<?xml version="1.0" encoding="UTF-8"?>
<svg version="1.1" xmlns="http://www.w3.org/2000/svg" width="960" height="960">
<path d="M0 0 C0.66 0 1.32 0 2 0 C17.53529738 43.92969443 17.53529738 43.92969443 23.09375 62.67578125 C27.11586134 76.17158448 31.48806658 89.56191418 35.97265625 102.91015625 C36.30780243 103.90781509 36.64294861 104.90547394 36.98825073 105.93336487 C38.35440421 109.99543997 39.72222023 114.0569343 41.09594727 118.11645508 C44.98603686 129.62275607 48.68983225 141.13477149 51.96012878 152.83343506 C53.85425077 159.58597077 56.01022096 166.20922489 58.375 172.8125 C59.14141118 174.99972468 59.90701557 177.1872322 60.671875 179.375 C61.84755368 182.72161991 63.02392263 186.06799474 64.20117188 189.4140625 C65.3545706 192.70948743 66.49146798 196.01019728 67.625 199.3125 C68.15746338 200.81550659 68.15746338 200.81550659 68.70068359 202.34887695 C69.01859863 203.28175537 69.33651367 204.21463379 69.6640625 205.17578125 C69.94717285 205.98958252 70.2302832 206.80338379 70.52197266 207.6418457 C71.08592683 210.42388522 70.7874653 212.28806592 70 215 C68.6171875 216.73828125 68.6171875 216.73828125 66.875 218.3125 C64.19925936 220.82374839 61.74824415 223.38748826 59.375 226.1875 C57.47664441 228.39802962 55.81421418 230.14398401 53.5 231.9375 C50.34518888 234.54021918 48.14752458 237.56227447 45.72265625 240.83984375 C44 243 44 243 40.9375 245.5 C40.298125 246.325 39.65875 247.15 39 248 C40.18689092 255.22990261 42.5367189 262.11232832 44.8125 269.0625 C45.5277732 271.27069427 46.24261646 273.47902786 46.95703125 275.6875 C47.30459473 276.75871094 47.6521582 277.82992188 48.01025391 278.93359375 C49.36638914 283.13513755 50.68907107 287.34666616 52 291.5625 C52.5878125 293.45162109 52.5878125 293.45162109 53.1875 295.37890625 C53.455625 296.24386719 53.72375 297.10882813 54 298 C55.17755859 296.71416016 55.17755859 296.71416016 56.37890625 295.40234375 C65.93364057 284.9951877 65.93364057 284.9951877 69.8125 281.1875 C72.69308254 278.35527256 75.33754691 275.36945923 77.9765625 272.3125 C80.48733913 269.44304099 83.050388 266.62465574 85.625 263.8125 C86.08036133 263.31339111 86.53572266 262.81428223 87.00488281 262.30004883 C89.9252363 259.11656704 92.94580703 256.05419297 96 253 C97.40789407 251.46933966 98.80373936 249.92751193 100.1875 248.375 C100.95964844 247.51390625 101.73179687 246.6528125 102.52734375 245.765625 C104.22997522 243.86125995 105.93036773 241.95489153 107.62890625 240.046875 C108.49386719 239.08265625 109.35882812 238.1184375 110.25 237.125 C111.03890625 236.24070312 111.8278125 235.35640625 112.640625 234.4453125 C115 232 115 232 117.734375 229.9296875 C120.24009835 227.79550244 120.56719886 227.15463341 121 224 C120.68067313 221.96468658 120.68067313 221.96468658 119.95532227 219.88769531 C119.70050583 219.08372818 119.44568939 218.27976105 119.18315125 217.45143127 C118.8971254 216.5857402 118.61109955 215.72004913 118.31640625 214.828125 C118.02566727 213.92146591 117.73492828 213.01480682 117.43537903 212.08067322 C116.4875904 209.1338362 115.52519463 206.19199742 114.5625 203.25 C113.91078131 201.23244881 113.25990331 199.21462587 112.60986328 197.1965332 C108.98756314 185.97745523 105.34202925 174.76163563 101.48657227 163.62011719 C99.88066653 158.92168514 98.52024736 154.21720219 97.2890625 149.40625 C94.39546696 138.21475535 90.61956839 127.28472504 87 116.3125 C86.28087667 114.12186731 85.56212433 111.9311128 84.84375 109.74023438 C83.51784988 105.7001922 82.19054252 101.66062433 80.859375 97.62231445 C80.55966797 96.71075592 80.25996094 95.79919739 79.95117188 94.86001587 C79.27037702 92.8129788 78.57759357 90.76991346 77.87695312 88.72958374 C77.51021484 87.65632843 77.14347656 86.58307312 76.765625 85.47729492 C76.42821289 84.50088547 76.09080078 83.52447601 75.74316406 82.51847839 C75 80 75 80 75 77 C78.61521768 78.45394624 80.12361044 80.21178768 82.25 83.4375 C84.77399846 87.1937718 87.36113604 90.86891231 90.0625 94.5 C100 108.11805556 100 108.11805556 100 112 C100.66 112 101.32 112 102 112 C103.60856007 114.19846678 105.09741342 116.39562642 106.5625 118.6875 C107.45572547 120.06204734 108.35028481 121.43572869 109.24609375 122.80859375 C109.70097168 123.50710449 110.15584961 124.20561523 110.62451172 124.92529297 C111.93661458 126.9043931 113.2851823 128.84934439 114.66015625 130.78515625 C115.07515381 131.37014893 115.49015137 131.9551416 115.91772461 132.55786133 C117.06898018 134.17148163 118.2257578 135.78115791 119.3828125 137.390625 C121 140 121 140 121 143 C117.7 142.67 114.4 142.34 111 142 C118.58272527 155.26203175 126.42868703 168.34566627 134.39892578 181.37792969 C143.95911358 197.0345959 143.95911358 197.0345959 147.5625 203.625 C151.40588115 210.65138753 155.64282819 217.48829506 160.10546875 224.13671875 C160.75128906 225.10222656 161.39710938 226.06773437 162.0625 227.0625 C162.94615234 228.34833984 162.94615234 228.34833984 163.84765625 229.66015625 C165 232 165 232 164.72680664 233.95947266 C163.5072541 237.38339611 160.84919405 239.73427016 158.375 242.3125 C157.82884033 242.89281982 157.28268066 243.47313965 156.7199707 244.07104492 C153.39440293 247.58999981 149.99910749 251.03108597 146.546875 254.42578125 C144.93755215 256.06355173 143.43601069 257.76039229 141.9375 259.5 C138.33268146 263.68093109 134.57966778 267.7159286 130.8125 271.75 C130.20591553 272.40033203 129.59933105 273.05066406 128.97436523 273.72070312 C126.03079791 276.86636369 123.04641668 279.95358332 120 283 C118.94632892 284.17686148 117.90471198 285.36461898 116.875 286.5625 C113.89941281 289.98057752 110.90142946 293.37679216 107.875 296.75 C106.66457031 298.10351562 106.66457031 298.10351562 105.4296875 299.484375 C103 302 103 302 100.40234375 304.0625 C98.02795142 305.97745706 96.48254679 307.79948266 94.6875 310.25 C90.83665922 315.20631028 86.54105089 319.5460965 82.0625 323.9375 C76.81185664 329.09196022 72.00318292 334.30015389 67.46484375 340.1015625 C64.21416646 343.9240705 60.65027992 347.37139571 57.0625 350.875 C40.10502784 367.52626013 27.7436191 386.53843719 22.3125 409.875 C22.01851318 411.0928418 21.72452637 412.31068359 21.42163086 413.56542969 C19.4056944 422.00276799 17.52511584 430.45935132 16 439 C15.01 439.33 14.02 439.66 13 440 C15.55367533 338.75594386 15.55367533 338.75594386 33.1875 320.25 C37.02109088 316.43926998 37.02109088 316.43926998 40 312 C39.60914881 310.01024855 39.60914881 310.01024855 38.84423828 307.765625 C38.56709991 306.89131836 38.28996155 306.01701172 38.00442505 305.11621094 C37.69616791 304.17036133 37.38791077 303.22451172 37.0703125 302.25 C36.60563065 300.7964209 36.60563065 300.7964209 36.13156128 299.31347656 C35.13627942 296.20671881 34.13055139 293.10344712 33.125 290 C32.45378488 287.90645579 31.78320374 285.8127082 31.11328125 283.71875 C30.4745184 281.72898679 29.83521357 279.73939746 29.1953125 277.75 C28.89110382 276.80415039 28.58689514 275.85830078 28.27346802 274.88378906 C27.99002533 274.00948242 27.70658264 273.13517578 27.41455078 272.234375 C27.04029465 271.07760254 27.04029465 271.07760254 26.65847778 269.89746094 C26.02751984 267.94732506 26.02751984 267.94732506 25 266 C21.36200282 273.83250866 20.8746356 282.06604794 20.03881836 290.55102539 C19.86521236 292.23237565 19.69065166 293.91362757 19.51521301 295.5947876 C19.04293869 300.14589159 18.58382159 304.69823785 18.12695765 309.250911 C17.64475358 314.03198268 17.14994375 318.81174887 16.65638733 323.59165955 C15.72255258 332.65332982 14.79927763 341.71604178 13.88013989 350.77921337 C12.53486146 364.04018727 11.17489414 377.29965612 9.81355381 390.55898952 C9.71323965 391.53610443 9.61292548 392.51321933 9.50957149 393.51994377 C9.30932813 395.47041 9.10905759 397.42087344 8.90875918 399.37133402 C8.32646254 405.0452369 7.74757309 410.719474 7.17177761 416.39404023 C6.81132398 419.94358564 6.44908991 423.4929481 6.0865612 427.0422821 C5.9204729 428.67264936 5.75517842 430.30309773 5.59079361 431.93363762 C4.57711668 441.98500303 3.39946065 451.99437775 2 462 C1.34 462 0.68 462 0 462 C-0.09157379 461.0830687 -0.09157379 461.0830687 -0.18499756 460.14761353 C-4.18864538 420.09604277 -8.31576525 380.05710139 -12.50085449 340.02410889 C-13.04252415 334.84112416 -13.58169953 329.65788909 -14.11877441 324.47442627 C-14.76090913 318.27855453 -15.40823077 312.08324559 -16.05940056 305.88831711 C-16.30120827 303.57987421 -16.54124202 301.27124471 -16.77939034 298.96242142 C-17.10885869 295.77161346 -17.44487264 292.58155817 -17.7824707 289.39160156 C-17.87650555 288.46623911 -17.97054039 287.54087666 -18.06742477 286.58747292 C-19.20591076 275.92555007 -19.20591076 275.92555007 -23 266 C-24.67739429 271.24539798 -26.34956159 276.49242402 -28.01708984 281.7409668 C-28.58404572 283.52298945 -29.15238056 285.30457404 -29.72216797 287.08569336 C-30.54505229 289.65882813 -31.36282018 292.23354339 -32.1796875 294.80859375 C-32.43185028 295.59334579 -32.68401306 296.37809784 -32.94381714 297.18663025 C-33.65882211 299.45021284 -34.33941145 301.71997243 -35 304 C-35.23866791 304.80465698 -35.47733582 305.60931396 -35.72323608 306.43835449 C-37.05224872 310.92387317 -37.05224872 310.92387317 -35.91357422 315.25244141 C-34.99342529 316.04400635 -34.99342529 316.04400635 -34.0546875 316.8515625 C-33.05937012 317.77388672 -33.05937012 317.77388672 -32.04394531 318.71484375 C-31.32819336 319.34519531 -30.61244141 319.97554688 -29.875 320.625 C-22.47992536 327.85453848 -19.32406626 333.62237071 -18 344 C-17.74434546 345.67070411 -17.4877753 347.34126827 -17.23046875 349.01171875 C-12.87672922 379.08629824 -11.50849968 409.67834401 -10 440 C-10.99 440 -11.98 440 -13 440 C-13.26941406 438.77023437 -13.53882813 437.54046875 -13.81640625 436.2734375 C-15.12767092 430.37562967 -16.52900683 424.50022593 -17.9375 418.625 C-18.18951172 417.56539062 -18.44152344 416.50578125 -18.70117188 415.4140625 C-22.11189548 400.72470373 -22.11189548 400.72470373 -27.5 386.6875 C-27.83894287 385.96820312 -28.17788574 385.24890625 -28.52709961 384.5078125 C-31.98073839 377.5157547 -36.51463642 371.64984724 -41.55786133 365.7434082 C-43.1850324 363.77631346 -44.70230705 361.74115821 -46.234375 359.69921875 C-50.28783024 354.45630064 -54.93540056 349.91690404 -59.6875 345.3125 C-69.0119492 336.27385767 -69.0119492 336.27385767 -71.28125 332.69140625 C-73.15491355 329.75741946 -75.16364665 327.86922536 -77.8125 325.625 C-82.29717978 321.70008201 -86.19877285 317.57832531 -90 313 C-93.52483249 308.8240285 -97.08496283 304.821822 -101 301 C-105.52955964 296.5664056 -109.88444227 292.06610349 -114.0234375 287.265625 C-119.51429837 280.97175286 -125.13497134 274.76014263 -131.125 268.9375 C-133.97883509 266.13513689 -136.4676388 263.20767697 -138.9375 260.0625 C-143.94526947 253.78066904 -149.64610474 248.24596799 -155.41186523 242.66235352 C-156.13317627 241.95780029 -156.8544873 241.25324707 -157.59765625 240.52734375 C-158.58004272 239.57976196 -158.58004272 239.57976196 -159.58227539 238.61303711 C-161 237 -161 237 -161 235 C-161.66 235 -162.32 235 -163 235 C-161.68519522 231.47704255 -160.13025928 228.38472707 -158.13671875 225.19921875 C-157.57919922 224.30396484 -157.02167969 223.40871094 -156.44726562 222.48632812 C-155.57618164 221.1009082 -155.57618164 221.1009082 -154.6875 219.6875 C-154.11837891 218.77548828 -153.54925781 217.86347656 -152.96289062 216.92382812 C-150.83316301 213.51284073 -148.70138297 210.10341668 -146.54418945 206.7097168 C-144.41823393 203.35337773 -142.44956183 200.06576356 -140.8125 196.4375 C-138.29111697 191.26826959 -135.16718595 186.63471523 -131.94360352 181.8894043 C-124.99554569 171.62490635 -118.85696055 160.91832241 -113 150 C-111.34186564 146.9951798 -109.67088297 143.99776062 -108 141 C-112.95 141.99 -112.95 141.99 -118 143 C-117.09425124 138.47125619 -116.57713478 136.95696243 -114.05078125 133.41796875 C-113.44943359 132.56783203 -112.84808594 131.71769531 -112.22851562 130.84179688 C-111.59623047 129.96587891 -110.96394531 129.08996094 -110.3125 128.1875 C-109.69955078 127.32318359 -109.08660156 126.45886719 -108.45507812 125.56835938 C-105.61391527 121.57626946 -102.7281271 117.62735868 -99.7578125 113.73046875 C-97.43356136 110.64993519 -95.43883869 107.50334547 -93.5625 104.125 C-90.37825785 98.56319038 -87.12910301 92.92441836 -83 88 C-82.34 88 -81.68 88 -81 88 C-80.62875 86.948125 -80.62875 86.948125 -80.25 85.875 C-78.82819762 82.60485452 -77.12753712 79.858878 -75 77 C-74.34 77 -73.68 77 -73 77 C-73.61444558 82.28906814 -74.80881071 87.09196749 -76.44140625 92.15234375 C-76.68465134 92.92076599 -76.92789642 93.68918823 -77.17851257 94.480896 C-77.96767127 96.96822034 -78.76492066 99.45286437 -79.5625 101.9375 C-80.11263553 103.6656662 -80.66243798 105.39393846 -81.21191406 107.12231445 C-84.45437542 117.29723789 -87.79568119 127.43523218 -91.21899414 137.55078125 C-93.83631018 145.35109387 -96.14091128 153.22572822 -98.42089844 161.13012695 C-100.81157513 169.28449322 -103.40318791 177.36283118 -106.0625 185.43359375 C-106.42460571 186.533582 -106.78671143 187.63357025 -107.15979004 188.76689148 C-109.00069312 194.35098951 -110.85263376 199.93119405 -112.71679688 205.50756836 C-113.40512291 207.58571679 -114.09328122 209.66392078 -114.78125 211.7421875 C-115.26815308 213.18270729 -115.26815308 213.18270729 -115.76489258 214.65232849 C-116.05968506 215.54678177 -116.35447754 216.44123505 -116.65820312 217.36279297 C-117.04836609 218.52970169 -117.04836609 218.52970169 -117.44641113 219.72018433 C-118.06315411 222.26008421 -118.21383765 224.39582131 -118 227 C-116.28896989 229.06062894 -116.28896989 229.06062894 -113.9375 230.8125 C-109.45601243 234.55057962 -105.74193289 238.53913093 -102 243 C-100.79552489 244.39916398 -99.58720702 245.79502943 -98.375 247.1875 C-97.58222656 248.10595703 -97.58222656 248.10595703 -96.7734375 249.04296875 C-94.59543836 251.44644357 -92.29532958 253.70788067 -90 256 C-87.29356014 258.79466202 -84.61380939 261.61400586 -81.9375 264.4375 C-80.87692383 265.54448242 -80.87692383 265.54448242 -79.79492188 266.67382812 C-74.00201014 272.79310108 -74.00201014 272.79310108 -71.73046875 276.3359375 C-70.10328596 278.84099092 -68.69075058 280.34968092 -66.375 282.1875 C-61.06063071 286.63953767 -56.5770254 291.81332982 -52 297 C-49.69593172 293.54389757 -48.67262261 290.08373314 -47.50390625 286.1484375 C-47.26969467 285.37496979 -47.03548309 284.60150208 -46.79417419 283.80459595 C-46.04558972 281.32945142 -45.30377656 278.85234194 -44.5625 276.375 C-43.82352424 273.91948291 -43.08311992 271.46440515 -42.34153748 269.00967407 C-41.88112912 267.48415426 -41.42240184 265.95812562 -40.9657135 264.43148804 C-39.40912682 259.25333868 -37.73452538 254.12119429 -36 249 C-36.64066406 248.29875 -37.28132813 247.5975 -37.94140625 246.875 C-38.80636719 245.92625 -39.67132813 244.9775 -40.5625 244 C-41.25085938 243.24505249 -41.25085938 243.24505249 -41.953125 242.47485352 C-44.51036724 239.66287199 -47.02799386 236.8244712 -49.5 233.9375 C-52.93959903 229.96122595 -56.68059868 226.32590856 -60.47265625 222.6875 C-61.30667969 221.800625 -62.14070313 220.91375 -63 220 C-63.54887878 219.46826675 -64.09775757 218.93653351 -64.66326904 218.38868713 C-67.29166318 215.50360978 -69.05522375 213.43792546 -68.90086365 209.41867065 C-68.13262776 206.38208598 -67.14765559 203.520986 -66.04296875 200.58984375 C-65.66900467 199.50474014 -65.29504059 198.41963654 -64.90974426 197.301651 C-63.70510881 193.83299244 -62.44780028 190.38627351 -61.1875 186.9375 C-60.37987118 184.64514268 -59.57579645 182.35152992 -58.77539062 180.05664062 C-57.22908421 175.63916341 -55.66552633 171.22853888 -54.08349609 166.82373047 C-50.37349992 156.48236219 -46.98778089 146.07694927 -43.93302917 135.52436829 C-41.77760525 128.12930389 -39.35407006 120.83070008 -36.894104 113.53225708 C-36.10185781 111.18132734 -35.31390164 108.8289937 -34.52685547 106.47631836 C-32.05665738 99.09701573 -29.57512555 91.72167211 -27.0625 84.35668945 C-26.753125 83.43460693 -26.44375 82.51252441 -26.125 81.5625 C-25.89081863 80.86546967 -25.65663727 80.16843933 -25.4153595 79.45028687 C-23.82013646 74.64480798 -22.3599482 69.82346288 -21.01506042 64.94236755 C-17.42516781 51.92606314 -13.10185472 39.19307715 -8.6875 26.4375 C-7.59524025 23.26780031 -6.50453181 20.0975769 -5.41548157 16.92677307 C-4.74542579 14.97724976 -4.0733182 13.02843007 -3.39884949 11.08042908 C-3.09795914 10.20753738 -2.79706879 9.33464569 -2.48706055 8.43530273 C-2.22314011 7.67257553 -1.95921967 6.90984833 -1.68730164 6.12400818 C-1.03149455 4.09732943 -0.48967031 2.0724304 0 0 Z M1 74 C0.68530762 75.03495605 0.68530762 75.03495605 0.36425781 76.09082031 C-4.18458728 91.00498659 -8.90391695 105.84630468 -13.875 120.625 C-18.14484215 133.32031501 -22.25715909 146.05417421 -26.23300171 158.84451294 C-30.1947074 171.58085478 -34.36368676 184.24069403 -38.64868164 196.87182617 C-38.87413666 197.53973175 -39.09959167 198.20763733 -39.33187866 198.89578247 C-39.94038638 200.69771316 -40.55246525 202.49843676 -41.16479492 204.29907227 C-42.09847555 206.84726934 -42.09847555 206.84726934 -42 209 C-41.34 209 -40.68 209 -40 209 C-39.64421875 209.84691406 -39.64421875 209.84691406 -39.28125 210.7109375 C-37.71633248 213.50679624 -35.79663209 215.39547728 -33.5 217.625 C-32.7059375 218.40101563 -31.911875 219.17703125 -31.09375 219.9765625 C-30.4028125 220.64429688 -29.711875 221.31203125 -29 222 C-28.34 222.66 -27.68 223.32 -27 224 C-24.27081385 217.52043879 -22.05366295 211.07866928 -20.23046875 204.29296875 C-17.04261877 192.80528432 -13.22203445 181.5710731 -9.3125 170.3125 C-8.31196538 167.41859006 -7.31306092 164.52413223 -6.31620789 161.62895203 C-5.70420466 159.85274034 -5.08998338 158.07729049 -4.47297668 156.30281067 C-2.49475535 150.57800156 -0.69919014 144.81360228 1 139 C3.28196965 145.00186299 5.42831349 151.03986394 7.51171875 157.11328125 C7.84137131 158.07334579 8.17102386 159.03341034 8.51066589 160.02256775 C9.57186819 163.11844461 10.63011126 166.21531868 11.6875 169.3125 C12.04660461 170.36280396 12.40570923 171.41310791 12.7756958 172.49523926 C17.4161288 186.08940319 21.91425236 199.68671476 25.79174805 213.52075195 C26.06414307 214.48843506 26.33653809 215.45611816 26.6171875 216.453125 C26.84003418 217.26942383 27.06288086 218.08572266 27.29248047 218.92675781 C27.99155786 221.26493291 27.99155786 221.26493291 30 224 C33.03028308 221.02913424 36.02423339 218.02544551 39 215 C39.57621094 214.43152344 40.15242188 213.86304688 40.74609375 213.27734375 C42.32515962 211.68126792 42.32515962 211.68126792 44 209 C43.59883519 204.28429271 42.09603824 199.93579922 40.55859375 195.48828125 C40.18964745 194.39848213 40.18964745 194.39848213 39.81324768 193.28666687 C38.77437196 190.21807736 37.72540796 187.15297722 36.67553711 184.08813477 C33.29799422 174.20432025 30.16926729 164.27932034 27.25 154.25 C24.32927558 144.24542706 21.19499827 134.32827924 17.87890625 124.44921875 C17.6614015 123.80102488 17.44389675 123.152831 17.21980095 122.48499489 C15.67391338 117.88361266 14.11901675 113.28529544 12.5625 108.6875 C10.97932545 104.00951166 9.39946914 99.33044555 7.8270092 94.64884377 C7.20756246 92.80968704 6.58256093 90.97240417 5.95741272 89.13517761 C5.58289474 88.02153336 5.20837677 86.9078891 4.82250977 85.76049805 C4.49356216 84.78936569 4.16461456 83.81823334 3.82569885 82.81767273 C2.96823776 79.89161231 2.44088818 77.01463806 2 74 C1.67 74 1.34 74 1 74 Z " fill="#FEFEFE" transform="translate(478,152)"/>
<path d="M0 0 C316.8 0 633.6 0 960 0 C960 1.32 960 2.64 960 4 C643.2 4 326.4 4 0 4 C0 2.68 0 1.36 0 0 Z " fill="#F7F7F7" transform="translate(0,749)"/>
<path d="M0 0 C0.75740479 0.00008057 1.51480957 0.00016113 2.29516602 0.00024414 C4.56676767 -0.00191449 6.83786122 -0.01998248 9.109375 -0.0390625 C23.5021983 -0.09678812 36.12106867 1.44986822 47.13867188 11.58398438 C54.46615439 19.24793293 56.03084272 26.51696912 56.04492188 36.93554688 C56.06941406 37.87398437 56.09390625 38.81242188 56.11914062 39.77929688 C56.15900766 49.40054123 53.37491372 57.31534093 46.72460938 64.36523438 C34.78294316 74.94473334 21.04594931 75.36135055 5.87670898 75.31591797 C3.71330961 75.310499 1.55011229 75.31591921 -0.61328125 75.32226562 C-1.98632858 75.32160586 -3.35937579 75.3203268 -4.73242188 75.31835938 C-5.97499756 75.31723145 -7.21757324 75.31610352 -8.49780273 75.31494141 C-11.33007812 75.18554688 -11.33007812 75.18554688 -12.33007812 74.18554688 C-12.42975399 71.92105308 -12.45807643 69.65340476 -12.45947266 67.38671875 C-12.46122498 66.67616837 -12.46297729 65.96561798 -12.46478271 65.23353577 C-12.4692009 62.87376497 -12.46626337 60.5140685 -12.46289062 58.15429688 C-12.46356367 56.52144354 -12.46453371 54.8885903 -12.46578979 53.2557373 C-12.46726672 49.82917326 -12.46511238 46.40263524 -12.46044922 42.97607422 C-12.45475193 38.57400186 -12.45803096 34.17199047 -12.46402168 29.76992035 C-12.46762744 26.39686622 -12.46648864 23.02382665 -12.46389389 19.65077209 C-12.46322466 18.027186 -12.4640529 16.40359861 -12.46637344 14.78001404 C-12.46890021 12.51476517 -12.46505907 10.24961637 -12.45947266 7.984375 C-12.45867706 6.69277466 -12.45788147 5.40117432 -12.45706177 4.07043457 C-12.17503523 -2.33680707 -5.05541835 0.01704733 0 0 Z M6.66992188 15.18554688 C6.66992188 30.03554688 6.66992188 44.88554688 6.66992188 60.18554688 C20.7050978 60.52490765 20.7050978 60.52490765 32.66992188 54.18554688 C37.84032103 47.06767642 38.95863739 39.80515231 37.66992188 31.18554688 C36.00297828 25.55770062 33.64761535 21.43443442 28.73242188 18.12304688 C21.37841626 14.24820904 15.27188489 15.18554688 6.66992188 15.18554688 Z " fill="#FEFEFE" transform="translate(255.330078125,656.814453125)"/>
<path d="M0 0 C4.86678623 3.54238211 8.4669232 7.22293523 11.5078125 12.421875 C11.5078125 13.741875 11.5078125 15.061875 11.5078125 16.421875 C6.2278125 17.741875 0.9478125 19.061875 -4.4921875 20.421875 C-5.5234375 19.143125 -6.5546875 17.864375 -7.6171875 16.546875 C-11.92358189 11.67203655 -15.4694532 10.433531 -21.8671875 9.984375 C-27.07138084 10.1072396 -30.54403406 12.15412896 -34.4921875 15.421875 C-40.15109748 21.37862235 -41.02252674 27.05509428 -40.859375 35.05859375 C-40.19005468 41.18928305 -38.22067274 46.08920484 -33.47265625 50.1484375 C-28.30256641 53.3899299 -23.50994653 54.42483484 -17.4921875 53.421875 C-12.27254353 51.76898774 -8.99798873 49.62883648 -5.4921875 45.421875 C-4.78771119 43.77083431 -4.11444355 42.10562665 -3.4921875 40.421875 C-4.34768188 40.42973022 -4.34768188 40.42973022 -5.22045898 40.43774414 C-7.79019073 40.45845721 -10.35990497 40.4715169 -12.9296875 40.484375 C-13.82751953 40.49275391 -14.72535156 40.50113281 -15.65039062 40.50976562 C-16.93139648 40.51459961 -16.93139648 40.51459961 -18.23828125 40.51953125 C-19.02904053 40.52476807 -19.8197998 40.53000488 -20.63452148 40.53540039 C-22.4921875 40.421875 -22.4921875 40.421875 -23.4921875 39.421875 C-23.59092566 37.42387928 -23.62190549 35.42230342 -23.6171875 33.421875 C-23.61976562 32.32875 -23.62234375 31.235625 -23.625 30.109375 C-23.4921875 27.421875 -23.4921875 27.421875 -22.4921875 26.421875 C-19.91029304 26.32096025 -17.3557225 26.28216001 -14.7734375 26.2890625 C-14.00036255 26.28810577 -13.2272876 26.28714905 -12.43078613 26.28616333 C-10.79321206 26.28548159 -9.15563531 26.28733543 -7.51806641 26.29150391 C-5.00286829 26.29685229 -2.48784877 26.29155874 0.02734375 26.28515625 C1.61458373 26.28581703 3.2018236 26.2870982 4.7890625 26.2890625 C5.54634644 26.28703827 6.30363037 26.28501404 7.0838623 26.28292847 C12.39286118 26.30692368 12.39286118 26.30692368 13.5078125 27.421875 C13.68985043 30.45683526 13.78623749 33.44715593 13.8203125 36.484375 C13.86381836 37.73637695 13.86381836 37.73637695 13.90820312 39.01367188 C13.97981365 46.08108014 12.18648964 51.00640554 7.83203125 56.55859375 C-2.10153999 65.97059323 -10.16480954 69.91934793 -24.10620117 69.84790039 C-33.7622663 69.53964867 -42.71543246 66.42297862 -49.48828125 59.33203125 C-58.41836645 48.96002403 -60.69368546 38.75060599 -59.70654297 25.38574219 C-58.65375421 15.74037458 -53.50641661 7.93878801 -46.4921875 1.421875 C-32.44236435 -7.55097316 -14.41285441 -9.12663508 0 0 Z " fill="#FEFEFE" transform="translate(71.4921875,662.578125)"/>
<path d="M0 0 C8.57804598 7.01680653 13.33870051 16.27800456 14.5625 27.25 C15.13407302 38.42425261 11.8719913 48.14233416 5 57 C-1.29327589 63.8609683 -10.08773278 68.05945477 -19.36328125 68.5859375 C-33.58843713 68.88835427 -42.59499841 65.48211731 -53.06640625 55.59375 C-60.6229604 47.56372754 -61.87257383 38.88526111 -61.79394531 28.23730469 C-61.53245348 20.5002229 -59.60061526 14.68217288 -55.3125 8.25 C-54.6525 8.25 -53.9925 8.25 -53.3125 8.25 C-53.07660156 7.67378906 -52.84070313 7.09757813 -52.59765625 6.50390625 C-49.47833562 1.03324363 -43.03142291 -3.3900051 -37.25 -5.75 C-24.56599626 -9.19698503 -10.80763817 -7.43533002 0 0 Z M-39.3125 15.25 C-43.80745675 22.02181393 -44.42595919 29.32140264 -43.3125 37.25 C-41.3963096 43.10851656 -38.75812186 48.06231891 -33.3125 51.25 C-28.05173015 53.58811993 -22.77260638 54.27762558 -17.234375 52.6328125 C-11.68437864 50.23911178 -8.0036744 46.65873285 -5.3125 41.25 C-3.14681745 34.20674037 -2.39473028 27.15238916 -5.3125 20.25 C-8.54222108 14.49802055 -12.19385378 10.73894084 -18.3125 8.25 C-26.30517583 7.01489734 -33.62742828 9.4112777 -39.3125 15.25 Z " fill="#FEFEFE" transform="translate(186.3125,663.75)"/>
<path d="M0 0 C41.28571429 0 41.28571429 0 50.9375 5.75 C57.05058134 12.41881601 57.442799 18.48497433 57.43359375 27.4140625 C56.71758584 33.33564145 54.48942101 37.04333924 49.9375 40.8125 C49.24527344 41.39644531 48.55304687 41.98039063 47.83984375 42.58203125 C46 44 46 44 44 45 C45.73973508 50.12600515 48.6501386 54.50051257 51.5 59.0625 C52.49105466 60.65663832 53.4806895 62.2516604 54.46875 63.84765625 C54.90638672 64.54898682 55.34402344 65.25031738 55.79492188 65.97290039 C58.1971656 70.0137897 58.1971656 70.0137897 59 72 C58.505 73.485 58.505 73.485 58 75 C46.3435598 75.68181652 46.3435598 75.68181652 41 74 C37.35510642 70.53650081 35.81356033 66.6303668 34 62 C33.0774273 60.17985657 32.14114962 58.36655513 31.1875 56.5625 C29.62030282 53.40136165 28.31796049 50.29490123 27 47 C23.37 47 19.74 47 16 47 C16 55.91 16 64.82 16 74 C10.72 74 5.44 74 0 74 C0 49.58 0 25.16 0 0 Z M16 13 C16 19.6 16 26.2 16 33 C19.031875 33.061875 22.06375 33.12375 25.1875 33.1875 C26.13391357 33.21481201 27.08032715 33.24212402 28.05541992 33.27026367 C32.84628681 33.31755702 36.14384415 33.19156787 40 30 C41.73899832 26.52200335 41.58979036 22.794318 41 19 C38.3210618 15.4280824 36.33291118 13.79722706 32 13 C29.23811597 12.9306756 26.50980431 12.90605003 23.75 12.9375 C19.91375 12.9684375 19.91375 12.9684375 16 13 Z " fill="#FEFEFE" transform="translate(686,658)"/>
<path d="M0 0 C8.37236142 6.84521395 13.94690803 15.14775288 15.75 25.8515625 C16.81408387 37.25015785 14.43812202 48.3678881 7.2578125 57.48828125 C-0.83779019 65.9556208 -10.28972271 69.65595022 -21.8671875 70.05078125 C-34.10208132 69.68002689 -41.84443165 65.84895139 -50.3984375 57.46484375 C-58.21954701 48.8663348 -60.57815551 40.26431799 -60.28125 28.79296875 C-59.59144315 21.20509341 -57.02243975 15.00609516 -52.9921875 8.61328125 C-52.3321875 8.61328125 -51.6721875 8.61328125 -50.9921875 8.61328125 C-50.74726562 8.02675781 -50.50234375 7.44023438 -50.25 6.8359375 C-46.53484669 0.27096162 -38.95391933 -3.33243723 -31.9921875 -5.38671875 C-21.12513447 -7.6324759 -9.24595979 -6.43591318 0 0 Z M-40.64453125 17.7109375 C-45.01412994 23.87903768 -43.87676349 34.42787523 -42.9921875 41.61328125 C-40.76422387 47.75752697 -36.66848448 51.58592286 -30.9921875 54.61328125 C-25.11200492 56.57334211 -18.38947907 56.44143652 -12.5546875 54.42578125 C-5.84005934 49.67641012 -1.64753941 43.69903864 0.0078125 35.61328125 C0.53675412 27.8113924 -0.76447701 21.0686791 -5.6796875 14.80078125 C-10.32404433 9.89396691 -15.21496031 7.43551138 -21.9921875 7.11328125 C-30.48010471 7.52922819 -35.30491129 11.37393978 -40.64453125 17.7109375 Z " fill="#FEFEFE" transform="translate(809.9921875,663.38671875)"/>
<path d="M0 0 C4.95 0 9.9 0 15 0 C15 9.9 15 19.8 15 30 C24.9 30 34.8 30 45 30 C45 20.1 45 10.2 45 0 C50.28 0 55.56 0 61 0 C61 24.42 61 48.84 61 74 C55.72 74 50.44 74 45 74 C45 63.77 45 53.54 45 43 C35.1 43 25.2 43 15 43 C15 53.23 15 63.46 15 74 C10.05 74 5.1 74 0 74 C0 49.58 0 25.16 0 0 Z " fill="#FEFEFE" transform="translate(551,658)"/>
<path d="M0 0 C4.69562658 3.24199065 8.08026188 6.4807529 10 12 C9.5625 14.1796875 9.5625 14.1796875 9 16 C-1.72553699 18.7239459 -1.72553699 18.7239459 -7 18 C-8.35386936 16.34997172 -9.68678142 14.6825613 -11 13 C-15.28275821 11.7310346 -17.2963943 11.70576489 -21.4375 13.4375 C-22.283125 13.953125 -23.12875 14.46875 -24 15 C-24 16.98 -24 18.96 -24 21 C-18.59135467 23.86914594 -13.19760485 26.35030907 -7.4375 28.4375 C-0.44119747 31.08899128 5.84197461 33.73026456 10.0625 40.125 C11.61121776 46.52636673 12.19865109 53.55501249 9.9375 59.875 C6.54652075 65.34432136 1.84884144 69.49998729 -4.37890625 71.52734375 C-14.34468137 73.32445074 -26.14135064 73.39613159 -35 68 C-38.84590692 64.59382473 -42.04549462 60.78807059 -44 56 C-44 54.68 -44 53.36 -44 52 C-41.89748139 51.32815382 -39.79292237 50.66269032 -37.6875 50 C-36.51574219 49.62875 -35.34398437 49.2575 -34.13671875 48.875 C-31 48 -31 48 -28 48 C-27.566875 48.94875 -27.13375 49.8975 -26.6875 50.875 C-25.20697799 54.20041937 -25.20697799 54.20041937 -22 56 C-19.62392133 56.35420761 -19.62392133 56.35420761 -17.0625 56.3125 C-16.20785156 56.32925781 -15.35320312 56.34601562 -14.47265625 56.36328125 C-11.50100512 55.92668796 -10.15410919 55.06658331 -8 53 C-6.99923003 50.0882504 -6.99923003 50.0882504 -8 47 C-13.21945822 42.63269822 -19.0939839 40.89836519 -25.48388672 38.87036133 C-32.20486963 36.69622391 -36.96126285 34.44648458 -41.5 29 C-44.08203329 23.67310249 -43.90165739 17.72899237 -43 12 C-40.31144038 5.30803774 -35.50707398 0.95057606 -29 -2 C-20.21810169 -4.52995254 -8.05610214 -4.4756123 0 0 Z " fill="#FEFEFE" transform="translate(397,660)"/>
<path d="M0 0 C8.559375 -0.020625 17.11875 -0.04125 25.9375 -0.0625 C28.64316162 -0.071604 31.34882324 -0.08070801 34.13647461 -0.09008789 C36.26676382 -0.09300685 38.39705358 -0.09555545 40.52734375 -0.09765625 C41.64500122 -0.10277222 42.76265869 -0.10788818 43.91418457 -0.11315918 C45.49761658 -0.11334045 45.49761658 -0.11334045 47.11303711 -0.11352539 C48.03459091 -0.115746 48.95614471 -0.11796661 49.90562439 -0.12025452 C52 0 52 0 53 1 C53 4.96 53 8.92 53 13 C40.79 13 28.58 13 16 13 C16 18.61 16 24.22 16 30 C17.93746094 29.98839844 19.87492188 29.97679687 21.87109375 29.96484375 C24.39322821 29.95546779 26.9153637 29.94636738 29.4375 29.9375 C30.71689453 29.92912109 31.99628906 29.92074219 33.31445312 29.91210938 C35.13686523 29.90727539 35.13686523 29.90727539 36.99609375 29.90234375 C38.12200928 29.89710693 39.2479248 29.89187012 40.40795898 29.88647461 C43 30 43 30 44 31 C44 34.96 44 38.92 44 43 C34.76 43 25.52 43 16 43 C16 48.94 16 54.88 16 61 C18.58714844 60.98839844 21.17429687 60.97679687 23.83984375 60.96484375 C26.33520383 60.95705338 28.83056257 60.95097651 31.32592773 60.94506836 C33.06519168 60.94002796 34.80445136 60.9331957 36.54370117 60.92456055 C39.03825937 60.91248208 41.53276173 60.90676892 44.02734375 60.90234375 C44.80963852 60.89718246 45.59193329 60.89202118 46.39793396 60.88670349 C48.26567114 60.88650774 50.13329204 60.93800306 52 61 C53 62 53 62 53.1328125 64.46875 C53.13023437 65.4690625 53.12765625 66.469375 53.125 67.5 C53.12886719 69.00046875 53.12886719 69.00046875 53.1328125 70.53125 C53 73 53 73 52 74 C50.37325222 74.09340434 48.74245949 74.11745171 47.11303711 74.11352539 C46.05741577 74.11340454 45.00179443 74.11328369 43.91418457 74.11315918 C42.7965271 74.10804321 41.67886963 74.10292725 40.52734375 74.09765625 C39.50612427 74.09664917 38.48490479 74.09564209 37.43273926 74.09460449 C33.60098149 74.08935415 29.76923967 74.07539303 25.9375 74.0625 C17.378125 74.041875 8.81875 74.02125 0 74 C0 49.58 0 25.16 0 0 Z " fill="#FEFEFE" transform="translate(834,658)"/>
<path d="M0 0 C17.16 0 34.32 0 52 0 C52 4.29 52 8.58 52 13 C40.12 13 28.24 13 16 13 C16 18.61 16 24.22 16 30 C17.93746094 29.98839844 19.87492188 29.97679687 21.87109375 29.96484375 C24.39322821 29.95546779 26.9153637 29.94636738 29.4375 29.9375 C30.71689453 29.92912109 31.99628906 29.92074219 33.31445312 29.91210938 C35.13686523 29.90727539 35.13686523 29.90727539 36.99609375 29.90234375 C38.12200928 29.89710693 39.2479248 29.89187012 40.40795898 29.88647461 C43 30 43 30 44 31 C44 34.96 44 38.92 44 43 C34.76 43 25.52 43 16 43 C16 48.94 16 54.88 16 61 C27.88 61 39.76 61 52 61 C52 65.29 52 69.58 52 74 C34.84 74 17.68 74 0 74 C0 49.58 0 25.16 0 0 Z " fill="#FEFEFE" transform="translate(624,658)"/>
<path d="M0 0 C3.16760071 2.758101 5.34016209 5.96368923 7.0546875 9.7890625 C7.0546875 10.4490625 7.0546875 11.1090625 7.0546875 11.7890625 C5.30651892 12.29542857 3.55606487 12.79390869 1.8046875 13.2890625 C0.83015625 13.5675 -0.144375 13.8459375 -1.1484375 14.1328125 C-3.9453125 14.7890625 -3.9453125 14.7890625 -7.9453125 14.7890625 C-8.0071875 14.1703125 -8.0690625 13.5515625 -8.1328125 12.9140625 C-8.76393917 10.6356763 -8.76393917 10.6356763 -10.8828125 9.5390625 C-15.93428043 8.30196831 -21.56499436 7.45089387 -26.23828125 10.078125 C-28.35314133 11.82324447 -28.35314133 11.82324447 -28.1953125 15.4765625 C-28.0715625 17.11625 -28.0715625 17.11625 -27.9453125 18.7890625 C-26.15405401 19.54003685 -24.36227814 20.28977712 -22.5703125 21.0390625 C-21.47203125 21.49925781 -20.37375 21.95945312 -19.2421875 22.43359375 C-16.45006884 23.58153827 -13.64424983 24.66084093 -10.8203125 25.7265625 C4.35464891 31.84549855 4.35464891 31.84549855 7.49609375 38.609375 C9.17705416 45.16864708 9.4253521 52.32720087 5.9296875 58.2890625 C1.16972501 64.60465519 -4.21058349 68.28605088 -11.9453125 69.7890625 C-22.21841506 70.85673602 -31.74470392 69.49096736 -39.9453125 62.8515625 C-43.25171353 59.69581284 -45.89274686 56.88859607 -46.01171875 52.13671875 C-45.98980469 51.36199219 -45.96789062 50.58726562 -45.9453125 49.7890625 C-44.19714392 49.28269643 -42.44668987 48.78421631 -40.6953125 48.2890625 C-39.72078125 48.010625 -38.74625 47.7321875 -37.7421875 47.4453125 C-34.9453125 46.7890625 -34.9453125 46.7890625 -30.9453125 46.7890625 C-30.7596875 47.9028125 -30.5740625 49.0165625 -30.3828125 50.1640625 C-29.32056539 54.01805188 -29.32056539 54.01805188 -25.9453125 55.2890625 C-21.35467295 56.16668477 -16.46056552 55.96523855 -11.9453125 54.7890625 C-10.07896368 53.62590656 -10.07896368 53.62590656 -8.9453125 51.7890625 C-8.58384793 49.50576149 -8.58384793 49.50576149 -8.7578125 47.1015625 C-8.78488281 46.29332031 -8.81195312 45.48507812 -8.83984375 44.65234375 C-8.89205078 43.73001953 -8.89205078 43.73001953 -8.9453125 42.7890625 C-12.42140144 41.36908509 -15.92029414 40.08663963 -19.47265625 38.87109375 C-21.60941106 38.1146852 -23.74612861 37.35817136 -25.8828125 36.6015625 C-26.95466797 36.23998047 -28.02652344 35.87839844 -29.13085938 35.50585938 C-36.51506173 32.84937543 -41.37381706 29.93205338 -44.9453125 22.7890625 C-45.87697597 10.87598867 -45.87697597 10.87598867 -43.3828125 5.2890625 C-42.5784375 4.4640625 -41.7740625 3.6390625 -40.9453125 2.7890625 C-40.4709375 2.26957031 -39.9965625 1.75007812 -39.5078125 1.21484375 C-28.79731294 -9.41841663 -11.65450252 -8.18638066 0 0 Z " fill="#FEFEFE" transform="translate(939.9453125,663.2109375)"/>
<path d="M0 0 C0.99 0 1.98 0 3 0 C3 8.58 3 17.16 3 26 C4.65 26.66 6.3 27.32 8 28 C10.43606093 31.92913053 11.42010181 34.49704247 10.5 39.0625 C9.21767925 43.22598446 6.97460013 45.86884196 4 49 C6.64 50.98 9.28 52.96 12 55 C12.144375 53.865625 12.28875 52.73125 12.4375 51.5625 C13 48 13 48 14 47 C17.5 46.875 17.5 46.875 21 47 C22 48 22 48 22.1328125 49.8203125 C22.13023437 50.58085938 22.12765625 51.34140625 22.125 52.125 C22.12242187 52.93582031 22.11984375 53.74664063 22.1171875 54.58203125 C22 57 22 57 21.25 60.8125 C20.61845733 64.09280927 20.61845733 64.09280927 22.9375 66.3125 C23.618125 66.869375 24.29875 67.42625 25 68 C25 68.66 25 69.32 25 70 C25.66 70 26.32 70 27 70 C27 70.99 27 71.98 27 73 C25.20866022 73.05391993 23.41686101 73.09275571 21.625 73.125 C20.62726563 73.14820313 19.62953125 73.17140625 18.6015625 73.1953125 C16 73 16 73 14 71 C12.19130534 71.30420546 12.19130534 71.30420546 10 72 C6.535 72.495 6.535 72.495 3 73 C3 81.58 3 90.16 3 99 C2.01 99 1.02 99 0 99 C0 90.75 0 82.5 0 74 C-2.64 74 -5.28 74 -8 74 C-12.91821849 72.93920778 -16.85356191 71.02744075 -20 67 C-21.60816725 62.17549824 -21.80474053 57.8106662 -19.75 53.1875 C-17.98791408 50.9848926 -16.4020112 49.47220041 -14 48 C-13.34 48 -12.68 48 -12 48 C-12.3609375 47.5153125 -12.721875 47.030625 -13.09375 46.53125 C-16.63378774 41.41786215 -17.91788005 38.22118703 -17 32 C-14.64067255 28.12396205 -13.13008812 27.06504406 -9 25 C-6.03 25 -3.06 25 0 25 C0 16.75 0 8.5 0 0 Z M-6.8125 34.5 C-7.204375 35.325 -7.59625 36.15 -8 37 C-5.525 39.97 -5.525 39.97 -3 43 C-0.39859044 41.33630748 -0.39859044 41.33630748 2 39 C2.58402133 36.41417872 2.58402133 36.41417872 2 34 C0.17213728 31.79142762 0.17213728 31.79142762 -2.4375 31.5625 C-5.25299859 31.73583949 -5.25299859 31.73583949 -6.8125 34.5 Z M-10 56 C-11.24050807 58.94109858 -11.24050807 58.94109858 -11 62 C-9.75609295 64.57955419 -9.75609295 64.57955419 -7 66 C-2.78984967 66.68626992 0.66186921 66.89590606 4.28125 64.47265625 C5.13203125 63.74369141 5.13203125 63.74369141 6 63 C4.35742342 61.16365304 2.71117305 59.3308593 1.0625 57.5 C0.59392578 56.97535156 0.12535156 56.45070313 -0.35742188 55.91015625 C-1.55095408 54.5878256 -2.77334179 53.29166061 -4 52 C-6.48920263 52 -8.34949223 54.43201761 -10 56 Z " fill="#FEFEFE" transform="translate(478,645)"/>
<path d="M0 0 C3.02181414 -0.10867663 6.03966327 -0.18762754 9.0625 -0.25 C9.91005859 -0.28351562 10.75761719 -0.31703125 11.63085938 -0.3515625 C17.65593746 -0.4446139 21.08156977 0.46507659 26 4 C30.82829849 10.22596385 31.63639247 15.32726819 31 23 C29.21984261 28.4451873 25.611739 31.78226393 21 35 C17.11436275 36.29521242 13.42199731 36.14503464 9.375 36.125 C8.58609375 36.12886719 7.7971875 36.13273438 6.984375 36.13671875 C1.12665394 36.12665394 1.12665394 36.12665394 0 35 C-0.08851529 32.40640678 -0.11525945 29.83960309 -0.09765625 27.24609375 C-0.09553383 26.08292381 -0.09553383 26.08292381 -0.09336853 24.89625549 C-0.08775345 22.40996506 -0.07519846 19.9237634 -0.0625 17.4375 C-0.05748694 15.75586067 -0.0529237 14.07421994 -0.04882812 12.39257812 C-0.03777913 8.26168434 -0.02050445 4.13085724 0 0 Z M6 5 C6 13.25 6 21.5 6 30 C16.69979857 30.77780299 16.69979857 30.77780299 24 26 C26.09036153 21.81927694 25.43167355 16.55385199 25 12 C23.15046662 8.44320504 21.87028738 7.42502407 18.3125 5.6875 C14.09514794 4.69517531 14.09514794 4.69517531 6 5 Z " fill="#FEFEFE" transform="translate(503,772)"/>
<path d="M0 0 C5.82972417 0.48581035 9.99547842 2.55797842 14.125 6.6875 C17.36453065 11.92058798 18.67144169 17.17339476 17.75 23.3125 C15.82336196 29.23472263 12.75012882 32.72545107 7.75 36.3125 C3.55916498 38.40791751 -1.68608446 37.72522631 -6.25 37.3125 C-10.9486838 35.26216525 -13.79904891 32.10824056 -16.33203125 27.72265625 C-18.34778964 22.43021827 -18.29993465 16.53855618 -16.55078125 11.1640625 C-14.13140549 6.48864437 -10.19041587 2.54557762 -5.3125 0.5 C-3.54114541 0.33896776 -1.77049341 0.17023975 0 0 Z M-10 10.8125 C-12.55686097 13.88073316 -12.59445661 17.38656051 -12.5234375 21.25 C-12.05492501 24.78392275 -10.61203894 26.70820066 -8.25 29.3125 C-4.63445116 31.38809285 -2.30158459 32.35456338 1.875 32.1875 C7.13676083 30.59718931 7.13676083 30.59718931 10.796875 26.65234375 C12.92326683 21.96122492 12.98817829 18.23839628 11.625 13.296875 C10.00620072 9.62566949 7.20763124 8.04131562 3.75 6.3125 C-2.32029508 5.85436452 -5.43743518 6.90173016 -10 10.8125 Z " fill="#FEFEFE" transform="translate(635.25,770.6875)"/>
<path d="M0 0 C1.98 0 3.96 0 6 0 C6.01981934 0.6705542 6.03963867 1.3411084 6.06005859 2.03198242 C6.15559715 5.08420161 6.26515945 8.13576341 6.375 11.1875 C6.4059375 12.24259766 6.436875 13.29769531 6.46875 14.38476562 C6.50742187 15.40634766 6.54609375 16.42792969 6.5859375 17.48046875 C6.6173584 18.41785889 6.6487793 19.35524902 6.68115234 20.32104492 C7.11138155 23.9358268 7.79740176 27.02010514 10.6875 29.375 C13.99780384 30.26967671 16.67919091 29.68922453 20 29 C21.79911112 27.20088888 21.21547279 24.46220779 21.28125 22.03125 C21.31863281 20.82082031 21.35601562 19.61039063 21.39453125 18.36328125 C21.42933594 17.08839844 21.46414063 15.81351563 21.5 14.5 C21.5685385 11.98945999 21.64122276 9.47902851 21.71875 6.96875 C21.74904297 5.84919922 21.77933594 4.72964844 21.81054688 3.57617188 C22 1 22 1 23 0 C24.66617115 -0.04063832 26.33388095 -0.042721 28 0 C28.08719631 4.56237931 28.14045922 9.12454386 28.1875 13.6875 C28.21263672 14.98107422 28.23777344 16.27464844 28.26367188 17.60742188 C28.27333984 18.85458984 28.28300781 20.10175781 28.29296875 21.38671875 C28.3086792 22.53358154 28.32438965 23.68044434 28.34057617 24.86206055 C27.86261888 29.26577745 26.25046809 31.86676329 23 34.8125 C18.34791241 36.65395134 13.93240563 36.64461689 9 36 C3.91770935 33.64036506 1.91270496 31.20343943 0 26 C-0.36318263 21.53516548 -0.2820571 17.1007027 -0.1875 12.625 C-0.17396484 11.41199219 -0.16042969 10.19898438 -0.14648438 8.94921875 C-0.11124582 5.96568794 -0.06197525 2.98307542 0 0 Z " fill="#FEFEFE" transform="translate(434,772)"/>
<path d="M0 0 C2.6875 1.6875 2.6875 1.6875 4.6875 4.6875 C4.3125 6.875 4.3125 6.875 3.6875 8.6875 C0.31287285 8.14026317 -1.39485 7.6326 -4.3125 5.6875 C-7.35445427 5.35409529 -7.35445427 5.35409529 -10.3125 5.6875 C-12.4510485 7.8260485 -12.73905063 8.82025314 -13.3125 11.6875 C-12.755625 11.85765625 -12.19875 12.0278125 -11.625 12.203125 C2.31607143 16.63035714 2.31607143 16.63035714 5.6875 21.6875 C6.14721784 26.65245273 5.83815843 29.74917696 2.6875 33.6875 C-1.96375469 36.59709545 -7.01043945 36.43836985 -12.3125 35.6875 C-15.17405474 34.34545301 -16.19986119 33.18930912 -18.3125 30.6875 C-19.1875 27.875 -19.1875 27.875 -19.3125 25.6875 C-17.6625 25.3575 -16.0125 25.0275 -14.3125 24.6875 C-13.94125 25.326875 -13.57 25.96625 -13.1875 26.625 C-11.41410282 28.93286989 -11.41410282 28.93286989 -8.375 29.5625 C-5.24107394 29.69041535 -3.89545732 29.37635671 -1.3125 27.6875 C-1.26082473 25.26482914 -1.26082473 25.26482914 -2.3125 22.6875 C-4.6967947 21.44766675 -6.79998348 20.54978378 -9.3125 19.6875 C-16.01348478 17.13602283 -16.01348478 17.13602283 -18.3125 13.6875 C-19.07392663 7.0522108 -19.07392663 7.0522108 -17.296875 3.8671875 C-12.58027754 -2.01435271 -6.89611514 -2.73242298 0 0 Z " fill="#FEFEFE" transform="translate(326.3125,772.3125)"/>
<path d="M0 0 C8.91 0 17.82 0 27 0 C27 1.65 27 3.3 27 5 C23.37 5 19.74 5 16 5 C16 15.23 16 25.46 16 36 C14.35 36 12.7 36 11 36 C11 25.77 11 15.54 11 5 C7.37 5 3.74 5 0 5 C0 3.35 0 1.7 0 0 Z " fill="#FEFEFE" transform="translate(369,772)"/>
<path d="M0 0 C1.65 0 3.3 0 5 0 C5 11.88 5 23.76 5 36 C3.35 36 1.7 36 0 36 C0 24.12 0 12.24 0 0 Z " fill="#FEFEFE" transform="translate(573,772)"/>
</svg>
